# xmcd CD database file
#
# Track frame offsets:
#	150
#	38955
#	74715
#	104090
#	143177
#	158040
#	198132
#	240327
#	255720
#	284712
#
# Disc length: 4050 seconds
#
# Revision: 0
# Processed by: cddbd v1.4PL0 Copyright (c) Steve Scherf et al.
# Submitted via: CDex 1.50
#
DISCID=980fd00a
DTITLE=Toots Thielemans and Fred Hersch - Concerto Pour Harmonica
DYEAR=1993
DGENRE=Jazz
TTITLE0=Prelude To A New Life
TTITLE1=Toots
TTITLE2=Mo' Blues
TTITLE3=Song For Willy Gtaz
TTITLE4=Passionnement
TTITLE5=Astor
TTITLE6=You Just Forget That I Love You
TTITLE7=Coda
TTITLE8=Ne Me Quitte Pas
TTITLE9=Body And Soul
EXTD=YEAR: 1993
EXTT0=
EXTT1=
EXTT2=
EXTT3=
EXTT4=
EXTT5=
EXTT6=
EXTT7=
EXTT8=
EXTT9=
PLAYORDER=
